<svg width="26" height="24" viewBox="0 0 26 24" fill="none" xmlns="http://www.w3.org/2000/svg">
<mask id="path-1-inside-1" fill="white">
<path fill-rule="evenodd" clip-rule="evenodd" d="M20.353 23.8169C20.526 23.938 20.7277 24 20.9308 24C21.0642 24 21.1983 23.9732 21.3252 23.9189C21.6452 23.7819 21.8768 23.4879 21.9417 23.1367L25.9792 1.27501C25.9872 1.23493 25.9928 1.19458 25.9961 1.15408C26.0009 1.09729 26.0012 1.0405 25.9974 0.984425C25.9816 0.761388 25.8979 0.542458 25.7455 0.362896C25.7284 0.342362 25.7103 0.322678 25.6912 0.303419C25.5073 0.117343 25.2717 0.0165157 25.0318 0.00178822C24.9905 -0.000619168 24.949 -0.000619168 24.9075 0.00192983C24.7917 0.00929359 24.6769 0.0367661 24.5683 0.0843473L0.6487 9.90647C0.254596 10.0683 -0.00283418 10.463 4.74985e-05 10.9006C0.00292918 11.3382 0.265574 11.7291 0.661599 11.8855L6.95231 14.3678L8.71288 21.2532C8.79933 21.5912 9.04153 21.8638 9.36044 21.9819C9.67976 22.0997 10.0342 22.0483 10.3092 21.8443L13.8155 19.2406L20.353 23.8169ZM20.2129 21.1519L14.3895 17.0757C14.3806 17.0691 14.3715 17.0626 14.3621 17.0565L12.0079 15.4085L23.3544 4.14107L20.2129 21.1519ZM9.54185 16.1692L10.3215 19.2181L12.0014 17.9706L9.80175 16.4308C9.69952 16.3594 9.61197 16.2705 9.54185 16.1692ZM8.18046 12.5778L3.86095 10.8735L20.4774 4.05044L9.66576 14.7865C9.48943 14.9617 9.38088 15.1942 9.35577 15.4413L8.80798 13.2989C8.72345 12.9684 8.4899 12.6999 8.18046 12.5778Z"/>
</mask>
<path fill-rule="evenodd" clip-rule="evenodd" d="M20.353 23.8169C20.526 23.938 20.7277 24 20.9308 24C21.0642 24 21.1983 23.9732 21.3252 23.9189C21.6452 23.7819 21.8768 23.4879 21.9417 23.1367L25.9792 1.27501C25.9872 1.23493 25.9928 1.19458 25.9961 1.15408C26.0009 1.09729 26.0012 1.0405 25.9974 0.984425C25.9816 0.761388 25.8979 0.542458 25.7455 0.362896C25.7284 0.342362 25.7103 0.322678 25.6912 0.303419C25.5073 0.117343 25.2717 0.0165157 25.0318 0.00178822C24.9905 -0.000619168 24.949 -0.000619168 24.9075 0.00192983C24.7917 0.00929359 24.6769 0.0367661 24.5683 0.0843473L0.6487 9.90647C0.254596 10.0683 -0.00283418 10.463 4.74985e-05 10.9006C0.00292918 11.3382 0.265574 11.7291 0.661599 11.8855L6.95231 14.3678L8.71288 21.2532C8.79933 21.5912 9.04153 21.8638 9.36044 21.9819C9.67976 22.0997 10.0342 22.0483 10.3092 21.8443L13.8155 19.2406L20.353 23.8169ZM20.2129 21.1519L14.3895 17.0757C14.3806 17.0691 14.3715 17.0626 14.3621 17.0565L12.0079 15.4085L23.3544 4.14107L20.2129 21.1519ZM9.54185 16.1692L10.3215 19.2181L12.0014 17.9706L9.80175 16.4308C9.69952 16.3594 9.61197 16.2705 9.54185 16.1692ZM8.18046 12.5778L3.86095 10.8735L20.4774 4.05044L9.66576 14.7865C9.48943 14.9617 9.38088 15.1942 9.35577 15.4413L8.80798 13.2989C8.72345 12.9684 8.4899 12.6999 8.18046 12.5778Z" fill="black"/>
<path d="M20.353 23.8169L20.2096 24.0217L20.2096 24.0217L20.353 23.8169ZM21.3252 23.9189L21.2268 23.689L21.2267 23.6891L21.3252 23.9189ZM21.9417 23.1367L22.1876 23.1822L22.1876 23.1821L21.9417 23.1367ZM25.9792 1.27501L25.734 1.22631L25.7334 1.22961L25.9792 1.27501ZM25.9961 1.15408L25.747 1.13301L25.7469 1.13382L25.9961 1.15408ZM25.9974 0.984425L26.2468 0.967332L26.2467 0.966782L25.9974 0.984425ZM25.7455 0.362896L25.5537 0.523175L25.5549 0.524617L25.7455 0.362896ZM25.6912 0.303419L25.5134 0.479142L25.5136 0.479347L25.6912 0.303419ZM25.0318 0.00178822L25.0472 -0.247743L25.0464 -0.247788L25.0318 0.00178822ZM24.9075 0.00192983L24.8922 -0.247599L24.8917 -0.247566L24.9075 0.00192983ZM24.5683 0.0843473L24.6633 0.315673L24.6687 0.313314L24.5683 0.0843473ZM0.6487 9.90647L0.553737 9.67521L0.553722 9.67521L0.6487 9.90647ZM4.74985e-05 10.9006L0.250042 10.8989L4.74985e-05 10.9006ZM0.661599 11.8855L0.569801 12.118L0.569836 12.118L0.661599 11.8855ZM6.95231 14.3678L7.19452 14.3058L7.16288 14.1821L7.04408 14.1352L6.95231 14.3678ZM8.71288 21.2532L8.47068 21.3151L8.47068 21.3151L8.71288 21.2532ZM9.36044 21.9819L9.27362 22.2163L9.2739 22.2164L9.36044 21.9819ZM10.3092 21.8443L10.4582 22.045L10.4582 22.045L10.3092 21.8443ZM13.8155 19.2406L13.9589 19.0358L13.8112 18.9324L13.6665 19.0399L13.8155 19.2406ZM14.3895 17.0757L14.242 17.2776L14.2462 17.2805L14.3895 17.0757ZM20.2129 21.1519L20.0695 21.3567L20.3881 21.5797L20.4587 21.1973L20.2129 21.1519ZM14.3621 17.0565L14.2186 17.2615L14.2269 17.2668L14.3621 17.0565ZM12.0079 15.4085L11.8317 15.2311L11.6195 15.4418L11.8645 15.6133L12.0079 15.4085ZM23.3544 4.14107L23.6003 4.18647L23.7454 3.40047L23.1783 3.96368L23.3544 4.14107ZM10.3215 19.2181L10.0793 19.28L10.1716 19.6408L10.4706 19.4188L10.3215 19.2181ZM9.54185 16.1692L9.74737 16.0269L9.29964 16.2311L9.54185 16.1692ZM12.0014 17.9706L12.1505 18.1714L12.4288 17.9647L12.1448 17.7658L12.0014 17.9706ZM9.80175 16.4308L9.94512 16.226L9.94486 16.2258L9.80175 16.4308ZM3.86095 10.8735L3.76599 10.6423L3.19152 10.8782L3.7692 11.1061L3.86095 10.8735ZM8.18046 12.5778L8.0887 12.8104L8.08872 12.8104L8.18046 12.5778ZM20.4774 4.05044L20.6536 4.22784L20.3825 3.81918L20.4774 4.05044ZM9.66576 14.7865L9.4896 14.6091L9.48957 14.6092L9.66576 14.7865ZM9.35577 15.4413L9.11356 15.5033L9.60449 15.4666L9.35577 15.4413ZM8.80798 13.2989L9.05019 13.237L9.05018 13.237L8.80798 13.2989ZM20.9308 23.75C20.7788 23.75 20.6271 23.7036 20.4963 23.6121L20.2096 24.0217C20.4249 24.1723 20.6767 24.25 20.9308 24.25V23.75ZM21.2267 23.6891C21.1312 23.73 21.0307 23.75 20.9308 23.75V24.25C21.0977 24.25 21.2653 24.2165 21.4236 24.1487L21.2267 23.6891ZM21.6959 23.0913C21.6457 23.3629 21.4675 23.586 21.2268 23.689L21.4235 24.1487C21.8229 23.9778 22.1079 23.613 22.1876 23.1822L21.6959 23.0913ZM25.7334 1.22961L21.6959 23.0913L22.1876 23.1821L26.2251 1.32041L25.7334 1.22961ZM25.7469 1.13382C25.7444 1.16475 25.7401 1.19562 25.734 1.22631L26.2244 1.32371C26.2343 1.27425 26.2412 1.2244 26.2453 1.17433L25.7469 1.13382ZM25.7479 1.00152C25.7509 1.04532 25.7507 1.08934 25.747 1.13301L26.2452 1.17514C26.2511 1.10524 26.2514 1.03568 26.2468 0.967332L25.7479 1.00152ZM25.5549 0.524617C25.6712 0.661706 25.7358 0.829518 25.748 1.00207L26.2467 0.966782C26.2274 0.693259 26.1245 0.42321 25.9362 0.201174L25.5549 0.524617ZM25.5136 0.479347C25.5284 0.494307 25.5417 0.508774 25.5537 0.52317L25.9374 0.202621C25.9151 0.17595 25.8922 0.15105 25.8688 0.127491L25.5136 0.479347ZM25.0165 0.251318C25.1963 0.262358 25.3737 0.337768 25.5134 0.479142L25.869 0.127696C25.641 -0.103083 25.3471 -0.229326 25.0472 -0.247742L25.0165 0.251318ZM24.9229 0.251458C24.9541 0.249537 24.9857 0.249523 25.0173 0.251365L25.0464 -0.247788C24.9954 -0.250761 24.9438 -0.250775 24.8922 -0.247599L24.9229 0.251458ZM24.6687 0.313314C24.7502 0.277579 24.8364 0.256955 24.9234 0.251426L24.8917 -0.247566C24.747 -0.238368 24.6035 -0.204046 24.4679 -0.14462L24.6687 0.313314ZM0.743664 10.1377L24.6633 0.315609L24.4733 -0.146914L0.553737 9.67521L0.743664 10.1377ZM0.250042 10.8989C0.247808 10.5596 0.447304 10.2594 0.743679 10.1377L0.553722 9.67521C0.0618877 9.87721 -0.253476 10.3664 -0.249947 10.9022L0.250042 10.8989ZM0.753398 11.6529C0.455705 11.5354 0.252276 11.2382 0.250042 10.8989L-0.249947 10.9022C-0.246418 11.4381 0.0754431 11.9229 0.569801 12.118L0.753398 11.6529ZM7.04408 14.1352L0.753363 11.6529L0.569836 12.118L6.86055 14.6003L7.04408 14.1352ZM8.95509 21.1912L7.19452 14.3058L6.7101 14.4297L8.47068 21.3151L8.95509 21.1912ZM9.44726 21.7475C9.2077 21.6587 9.02184 21.4522 8.95509 21.1912L8.47068 21.3151C8.57683 21.7302 8.87536 22.0689 9.27362 22.2163L9.44726 21.7475ZM10.1602 21.6435C9.95251 21.7976 9.68655 21.8358 9.44698 21.7474L9.2739 22.2164C9.67296 22.3637 10.1159 22.299 10.4582 22.045L10.1602 21.6435ZM13.6665 19.0399L10.1602 21.6435L10.4582 22.045L13.9646 19.4413L13.6665 19.0399ZM20.4963 23.6121L13.9589 19.0358L13.6722 19.4454L20.2096 24.0217L20.4963 23.6121ZM14.2462 17.2805L20.0695 21.3567L20.3562 20.9471L14.5329 16.8708L14.2462 17.2805ZM14.2269 17.2668C14.2297 17.2686 14.2336 17.2714 14.2421 17.2775L14.537 16.8738C14.5276 16.8669 14.5134 16.8566 14.4973 16.8463L14.2269 17.2668ZM11.8645 15.6133L14.2187 17.2613L14.5055 16.8517L12.1513 15.2037L11.8645 15.6133ZM23.1783 3.96368L11.8317 15.2311L12.184 15.5859L23.5306 4.31847L23.1783 3.96368ZM20.4587 21.1973L23.6003 4.18647L23.1086 4.09567L19.967 21.1065L20.4587 21.1973ZM10.5638 19.1561L9.78405 16.1073L9.29964 16.2311L10.0793 19.28L10.5638 19.1561ZM11.8524 17.7699L10.1725 19.0174L10.4706 19.4188L12.1505 18.1714L11.8524 17.7699ZM9.65837 16.6356L11.8581 18.1754L12.1448 17.7658L9.94512 16.226L9.65837 16.6356ZM9.33632 16.3115C9.42288 16.4365 9.53136 16.5469 9.65864 16.6357L9.94486 16.2258C9.86767 16.1719 9.80105 16.1044 9.74737 16.0269L9.33632 16.3115ZM3.7692 11.1061L8.0887 12.8104L8.27221 12.3453L3.95271 10.641L3.7692 11.1061ZM20.3825 3.81918L3.76599 10.6423L3.95591 11.1048L20.5724 4.2817L20.3825 3.81918ZM9.84191 14.9639L20.6536 4.22784L20.3013 3.87304L9.4896 14.6091L9.84191 14.9639ZM9.60449 15.4666C9.62391 15.2755 9.70773 15.0972 9.84195 14.9639L9.48957 14.6092C9.27113 14.8262 9.13786 15.1129 9.10705 15.4161L9.60449 15.4666ZM8.56577 13.3608L9.11356 15.5033L9.59798 15.3794L9.05019 13.237L8.56577 13.3608ZM8.08872 12.8104C8.32123 12.9021 8.5005 13.1056 8.56577 13.3608L9.05018 13.237C8.9464 12.8311 8.65856 12.4977 8.2722 12.3453L8.08872 12.8104Z" fill="white" mask="url(#path-1-inside-1)"/>
</svg>
